<svg width="193" height="72" viewBox="0 0 193 72" fill="none" xmlns="http://www.w3.org/2000/svg">
<path fill-rule="evenodd" clip-rule="evenodd" d="M126.39 17.17C126.39 10.52 131.09 5.38 138.45 5.38C145.68 5.38 150.3 10.52 150.3 17.17C150.3 23.83 145.68 29 138.45 29H126.39V17.17ZM115.94 9.89V13.88C114.69 12.35 112.55 11.12 110.01 11.29C106.88 11.48 104.85 13.72 104.78 17.93C104.78 18.37 104.78 18.76 104.85 19.12C105.6 16.84 107.67 15.31 110.55 15.31C114.74 15.31 117.29 18.23 117.29 21.98C117.29 26.62 113.73 29.24 109.73 29.24C104.78 29.24 101.43 25.69 101.43 19.03C101.43 11.26 105 7.97 109.92 7.75C112.94 7.67 115.1 8.99 115.94 9.89ZM51.6 29H48.08V12.16L43.58 14.95V11.26L48.98 7.78H51.6V29ZM63.6 23.77V21.01L73.62 8H77.6V20.51H80.36V23.77H77.6V29H74.12V23.77H63.6ZM82.2 23.77V21.01L92.22 8H96.2V20.51H98.96V23.77H96.2V29H92.72V23.77H82.2ZM138.68 23.99C140.81 23.99 142.4 23.11 143 22.37V19.06C142.34 20.24 140.9 21.14 138.75 21.14C136.46 21.14 135.12 19.93 135.12 17.17C135.12 14.6 136.41 13.31 138.71 13.31C140.61 13.31 141.96 14.27 142.86 15.67V11.69C141.96 11.03 140.46 10.49 138.71 10.49C134.66 10.49 131.84 12.74 131.84 17.17C131.84 21.71 134.57 23.99 138.68 23.99ZM74.12 12.16L67.55 20.51H74.12V12.16ZM92.72 12.16L86.15 20.51H92.72V12.16ZM113.7 22.07C113.7 19.99 112.28 18.49 109.68 18.49C107.19 18.49 105.44 20.02 105.24 22.45C105.87 24.47 107.21 25.76 109.62 25.76C112.17 25.76 113.7 24.17 113.7 22.07Z" fill="black"/>
<mask id="mask0_67_228" style="mask-type:luminance" maskUnits="userSpaceOnUse" x="0" y="48" width="24" height="24">
<path d="M24 48H0V72H24V48Z" fill="white"/>
</mask>
<g mask="url(#mask0_67_228)">
<path fill-rule="evenodd" clip-rule="evenodd" d="M2 60C2 54.477 6.4771 50 12 50C17.523 50 22 54.477 22 60C22 65.523 17.523 70 12 70C6.4771 70 2 65.523 2 60ZM20 60C20 55.589 16.411 52 12 52C7.5889 52 4 55.589 4 60C4 64.411 7.5889 68 12 68C16.411 68 20 64.411 20 60ZM10.5 55.5C10.5 54.948 10.948 54.5 11.5 54.5C12.052 54.5 12.5 54.948 12.5 55.5V59.912L16.486 62.126C16.968 62.394 17.143 63.003 16.874 63.486C16.606 63.968 15.997 64.143 15.514 63.874L11.014 61.374C10.697 61.198 10.5 60.863 10.5 60.5V55.5Z" fill="black"/>
</g>
<path fill-rule="evenodd" clip-rule="evenodd" d="M103.86 53.87C104.85 53.75 106.43 53.65 107.06 53.36V55.03C106.71 55.21 105.96 55.32 104.35 55.43C102.18 55.58 101.46 56.28 101.28 58.6L101.33 58.68C102.05 57.67 103.14 57.17 104.45 57.17C106.61 57.17 107.77 58.1 107.77 60.92C107.77 63.93 106.36 65.16 103.89 65.16C101.25 65.16 99.89 63.77 99.89 60.11C99.89 55.76 101.13 54.21 103.86 53.87ZM35.34 65H33.58V54.5H35.27V60.72C35.27 61.38 35.21 62.16 35.13 62.91C35.45 62.3 35.79 61.7 36.17 61.1L40.55 54.5H42.29V65H40.62V58.83C40.62 58.17 40.66 57.33 40.74 56.52C40.4 57.18 40.05 57.85 39.74 58.33L35.34 65ZM48.42 56.82C49.51 56.82 50.14 57.02 50.61 57.24V58.9C50.11 58.55 49.33 58.25 48.39 58.25C46.92 58.25 46.01 58.89 46.01 60.93C46.01 62.99 46.91 63.72 48.66 63.72C49.5 63.72 50.32 63.46 50.84 63.05V64.62C50.4 64.92 49.56 65.17 48.4 65.17C45.78 65.17 44.37 64.02 44.37 60.86C44.37 58.11 45.71 56.82 48.42 56.82ZM63.22 65.17C60.66 65.17 59.32 63.68 59.32 60.96C59.32 58.18 60.9 56.82 63.36 56.82C65.76 56.82 67.14 58.11 67.14 61C67.14 63.96 65.55 65.17 63.22 65.17ZM113.01 65.17C110.45 65.17 109.11 63.68 109.11 60.96C109.11 58.18 110.68 56.82 113.14 56.82C115.55 56.82 116.92 58.11 116.92 61C116.92 63.96 115.33 65.17 113.01 65.17ZM139.41 56.82C140.5 56.82 141.13 57.02 141.6 57.24V58.9C141.1 58.55 140.32 58.25 139.38 58.25C137.91 58.25 137 58.89 137 60.93C137 62.99 137.9 63.72 139.65 63.72C140.49 63.72 141.31 63.46 141.83 63.05V64.62C141.39 64.92 140.55 65.17 139.39 65.17C136.77 65.17 135.36 64.02 135.36 60.86C135.36 58.11 136.7 56.82 139.41 56.82ZM146.83 65.17C144.27 65.17 142.93 63.68 142.93 60.96C142.93 58.18 144.51 56.82 146.97 56.82C149.37 56.82 150.75 58.11 150.75 61C150.75 63.96 149.16 65.17 146.83 65.17ZM70.56 67.69H68.97V56.99H70.44L70.51 58.33C70.95 57.34 71.84 56.84 73.32 56.84C75.48 56.84 76.49 57.97 76.49 60.84C76.49 63.89 75.39 65.16 73.11 65.16C71.72 65.16 70.95 64.57 70.56 63.94V67.69ZM155.63 65.12C154.55 65.12 153.33 65.05 152.6 65.01V56.97C153.31 56.94 154.38 56.88 155.57 56.88C158.22 56.88 158.9 57.62 158.9 58.81C158.9 59.86 158.4 60.44 157.39 60.72C158.65 60.82 159.27 61.29 159.27 62.6C159.27 64.16 158.4 65.12 155.63 65.12ZM88.71 65H86.93L89.04 62.01C87.84 61.75 87.45 60.84 87.45 59.61C87.45 57.82 88.35 56.91 91.28 56.91C92.19 56.91 93.25 56.94 93.96 57.02V65H92.39V62.27H90.6L88.71 65ZM55.95 65H54.38V58.43H51.78V56.99H58.53V58.43H55.95V65ZM79.8 65H78.35V56.99H79.94V60.78C79.94 61.62 79.89 62.48 79.84 62.86L79.91 62.9C80.25 62.3 80.62 61.77 81.02 61.22L83.89 56.99H85.33V65H83.76V61.73C83.76 60.71 83.81 59.59 83.84 59.07L83.81 59.06C83.55 59.51 83.14 60.17 82.74 60.74L79.8 65ZM120.36 65H118.77V56.99H120.36V60.24H124.08V56.99H125.66V65H124.08V61.67H120.36V65ZM128.36 66.18C128.58 66.3 128.85 66.39 129.14 66.39C129.66 66.39 129.96 66.23 130.37 65.02L127.05 56.99H128.87L131.15 63.01L133.02 56.99H134.67L131.93 64.74C130.93 67.58 130.15 67.82 129.22 67.82C128.87 67.82 128.55 67.77 128.34 67.67L128.36 66.18ZM63.22 58.15C61.7 58.15 60.93 59.11 60.93 60.96V61.02C60.93 62.81 61.73 63.81 63.32 63.81C64.75 63.81 65.53 62.99 65.53 61.02V60.96C65.53 59.06 64.77 58.15 63.22 58.15ZM113.01 58.15C111.48 58.15 110.72 59.11 110.72 60.96V61.02C110.72 62.81 111.51 63.81 113.1 63.81C114.54 63.81 115.32 62.99 115.32 61.02V60.96C115.32 59.06 114.55 58.15 113.01 58.15ZM146.83 58.15C145.31 58.15 144.54 59.11 144.54 60.96V61.02C144.54 62.81 145.34 63.81 146.93 63.81C148.37 63.81 149.15 62.99 149.15 61.02V60.96C149.15 59.06 148.38 58.15 146.83 58.15ZM154.19 58.18V60.32H155.85C156.76 60.32 157.32 59.99 157.32 59.21C157.32 58.4 156.89 58.15 155.61 58.15C154.92 58.15 154.5 58.17 154.19 58.18ZM70.56 60.32V61.63C70.56 62.97 71.29 63.79 72.72 63.79C74.31 63.79 74.88 63 74.88 60.9C74.88 58.89 74.16 58.18 72.72 58.18C71.22 58.18 70.56 59.07 70.56 60.32ZM90.83 61.08H92.4V58.29C92.06 58.25 91.72 58.23 91.13 58.23C89.46 58.23 89.07 58.6 89.07 59.64C89.07 60.74 89.57 61.08 90.83 61.08ZM101.55 60.8C101.55 62.91 102.38 63.75 103.92 63.75C105.42 63.75 106.13 62.93 106.13 61.04C106.13 59.11 105.38 58.55 103.95 58.55C102.48 58.55 101.55 59.36 101.55 60.8ZM154.19 61.45V63.75C154.68 63.79 155.16 63.83 155.68 63.83C157.19 63.83 157.67 63.49 157.67 62.55C157.67 61.73 157.16 61.45 155.93 61.45H154.19Z" fill="black"/>
<mask id="mask1_67_228" style="mask-type:luminance" maskUnits="userSpaceOnUse" x="169" y="48" width="24" height="24">
<path d="M193 48H169V72H193V48Z" fill="white"/>
</mask>
<g mask="url(#mask1_67_228)">
<path fill-rule="evenodd" clip-rule="evenodd" d="M178.88 56.7C178.49 56.31 178.49 55.68 178.88 55.29C179.27 54.9 179.9 54.9 180.29 55.29L185 60L180.29 64.7C179.9 65.09 179.27 65.09 178.88 64.7C178.49 64.31 178.49 63.68 178.88 63.29L182.17 60L178.88 56.7Z" fill="black"/>
</g>
</svg>
