<svg width="24" height="24" viewBox="0 0 24 24" fill="none" xmlns="http://www.w3.org/2000/svg">
<g clip-path="url(#clip0_63_670)">
<mask id="mask0_63_670" style="mask-type:luminance" maskUnits="userSpaceOnUse" x="0" y="0" width="24" height="24">
<path d="M24 0H0V24H24V0Z" fill="white"/>
</mask>
<g mask="url(#mask0_63_670)">
<path fill-rule="evenodd" clip-rule="evenodd" d="M13.45 3.41999C13.45 3.46999 13.45 3.52999 13.44 3.58999C16.17 4.23999 18.19 6.68999 18.19 9.60999V12.93C18.19 13.6 18.59 14.2 19.12 14.61C20.2 15.45 20.84 16.59 20.84 17.57C20.84 20.01 16.88 22 12 22C7.10999 22 3.14999 20.01 3.14999 17.57C3.14999 16.59 3.78999 15.45 4.86999 14.61C5.39999 14.2 5.79999 13.6 5.79999 12.93V9.60999C5.79999 6.68999 7.81999 4.23999 10.54 3.58999C10.54 3.52999 10.54 3.46999 10.54 3.41999C10.54 2.60999 11.19 1.95999 12 1.95999C12.8 1.95999 13.45 2.60999 13.45 3.41999ZM12 14.77C8.17999 14.77 5.07999 15.98 5.07999 17.46C5.07999 18.94 8.17999 20.14 12 20.14C15.81 20.14 18.91 18.94 18.91 17.46C18.91 15.98 15.81 14.77 12 14.77ZM9.55999 16.06C9.55999 15.99 9.55999 15.92 9.56999 15.86C10.31 15.76 11.13 15.71 12 15.71C12.86 15.71 13.68 15.76 14.42 15.86C14.43 15.92 14.43 15.99 14.43 16.06C14.43 17.4 13.34 18.49 12 18.49C10.65 18.49 9.55999 17.4 9.55999 16.06Z" fill="white"/>
</g>
</g>
<defs>
<clipPath id="clip0_63_670">
<rect width="24" height="24" fill="white"/>
</clipPath>
</defs>
</svg>
