<svg width="24" height="24" viewBox="0 0 24 24" fill="none" xmlns="http://www.w3.org/2000/svg">
<path fill-rule="evenodd" clip-rule="evenodd" d="M6 2H18C20.209 2 22 3.79102 22 6V18C22 20.209 20.209 22 18 22H6C3.79102 22 2 20.209 2 18V6C2 3.79102 3.79102 2 6 2ZM7.29297 11.2891C7.68408 10.8994 8.31689 10.8994 8.70703 11.2891L11 13.582L16.2969 8.29199C16.688 7.90234 17.3208 7.90332 17.7119 8.29297C18.1021 8.68359 18.1021 9.31738 17.7109 9.70703L11.3525 16.0566C11.1572 16.252 10.8408 16.252 10.6455 16.0566L7.29297 12.7041C6.90186 12.3125 6.90186 11.6797 7.29297 11.2891Z" fill="#148F2B"/>
</svg>
