<svg width="18" height="18" viewBox="0 0 18 18" fill="none" xmlns="http://www.w3.org/2000/svg">
<path fill-rule="evenodd" clip-rule="evenodd" d="M13.5 4.5C13.8107 4.81066 13.8107 5.31434 13.5 5.625L10.125 9L13.5 12.375C13.8107 12.6857 13.8107 13.1893 13.5 13.5C13.1893 13.8107 12.6857 13.8107 12.375 13.5L9 10.125L5.625 13.5C5.31434 13.8107 4.81066 13.8107 4.5 13.5C4.18934 13.1893 4.18934 12.6857 4.5 12.375L7.875 9L4.5 5.625C4.18934 5.31434 4.18934 4.81066 4.5 4.5C4.81066 4.18934 5.31434 4.18934 5.625 4.5L9 7.875L12.375 4.5C12.6857 4.18934 13.1893 4.18934 13.5 4.5Z" fill="black" fill-opacity="0.32"/>
</svg>
