<svg width="16" height="19" viewBox="0 0 16 19" fill="none" xmlns="http://www.w3.org/2000/svg">
<path fill-rule="evenodd" clip-rule="evenodd" d="M10.5406 3.3966C11.5906 3.7366 11.7606 3.9566 10.7506 3.6866C9.85059 3.4366 7.86059 3.4666 6.81059 3.7466C4.14059 4.4366 1.9406 6.7666 1.9106 8.9266C1.9006 9.5566 1.9806 9.7966 2.3206 10.2866C2.9706 11.2066 3.52059 11.4566 4.81059 11.3866C5.70059 11.3366 6.08058 11.2366 6.96058 10.7966C8.31058 10.1266 10.1806 8.6166 10.7606 7.7466C11.1506 7.1566 11.3506 6.2666 11.1006 6.2666C10.9406 6.2666 9.16059 7.2966 8.12059 7.9966L7.11058 8.6866L6.17061 7.5466L5.2306 6.4066L6.1906 5.7866C8.5206 4.2766 11.1706 3.7966 12.7206 4.6066C13.3406 4.9266 14.5606 6.3366 15.0306 7.2566C15.7406 8.6766 16.2206 11.0766 15.8906 11.5666C15.7706 11.7366 15.7506 11.7266 15.7506 11.4666C15.7406 10.9566 15.2006 9.6366 14.7206 8.9666L14.2706 8.3466L14.0406 9.2766C13.6806 10.7766 13.2206 11.5366 11.9006 12.8766C10.8306 13.9566 10.4706 14.2166 9.1906 14.8366C7.4206 15.6866 6.2106 16.0066 4.6306 16.0266C2.4706 16.0566 1.39059 15.4666 0.56059 13.8166C0.13059 12.9766 0.0706026 12.7066 0.0106026 11.4666C-0.119397 8.7266 0.950594 6.2966 2.97059 4.7466C4.15059 3.8366 4.91059 3.4966 6.72059 3.0566C7.37059 2.8966 9.6006 3.0966 10.5406 3.3966ZM15.3706 14.0166C14.5006 16.2466 12.3106 18.1766 9.96058 18.7966C8.91058 19.0766 6.9406 19.0666 5.8806 18.7866C4.7706 18.5066 3.5006 17.8066 2.6906 17.0466L2.03059 16.4366L2.81059 16.8566C4.29059 17.6366 5.55058 17.9366 7.36058 17.9366C8.78058 17.9366 9.16059 17.8766 10.2506 17.5166C12.2606 16.8566 14.3606 15.2566 15.2706 13.7066C15.6106 13.1266 15.6606 13.2766 15.3706 14.0166Z" fill="black" fill-opacity="0.32"/>
</svg>
