<svg width="16" height="16" viewBox="0 0 16 16" fill="none" xmlns="http://www.w3.org/2000/svg">
<g clip-path="url(#clip0_26_38)">
<mask id="mask0_26_38" style="mask-type:luminance" maskUnits="userSpaceOnUse" x="0" y="0" width="16" height="16">
<path d="M16 0H0V16H16V0Z" fill="white"/>
</mask>
<g mask="url(#mask0_26_38)">
<path fill-rule="evenodd" clip-rule="evenodd" d="M1.3335 8.00293C1.3335 4.32227 4.32031 1.33594 8 1.33594C11.6802 1.33594 14.667 4.32227 14.667 8.00293C14.667 11.6826 11.6802 14.6689 8 14.6689C4.32031 14.6689 1.3335 11.6826 1.3335 8.00293ZM13.3335 8.00293C13.3335 5.06152 10.9409 2.66895 8 2.66895C5.05957 2.66895 2.66699 5.06152 2.66699 8.00293C2.66699 10.9434 5.05957 13.3359 8 13.3359C10.9409 13.3359 13.3335 10.9434 13.3335 8.00293ZM7.3335 5.66504C7.3335 5.84961 7.48291 5.99902 7.66699 5.99902H8.3335C8.51758 5.99902 8.66699 5.84961 8.66699 5.66504V4.99902C8.66699 4.81445 8.51758 4.66504 8.3335 4.66504H7.66699C7.48291 4.66504 7.3335 4.81445 7.3335 4.99902V5.66504ZM8 11.332C7.6333 11.332 7.3335 11.0322 7.3335 10.665V7.99902C7.3335 7.63184 7.6333 7.33203 8 7.33203C8.3667 7.33203 8.66699 7.63184 8.66699 7.99902V10.665C8.66699 11.0322 8.3667 11.332 8 11.332Z" fill="black" fill-opacity="0.32"/>
</g>
</g>
<defs>
<clipPath id="clip0_26_38">
<rect width="16" height="16" fill="white"/>
</clipPath>
</defs>
</svg>
